<svg xmlns="http://www.w3.org/2000/svg" width="62.306" height="74.5" viewBox="0 0 62.306 74.5">
  <path id="icon-work" d="M331.551,135.315h26.022v3.418a9.66,9.66,0,0,1-9.65,9.649h-.229a9.615,9.615,0,0,1-9.384-7.393,1.7,1.7,0,1,0-3.307.792,13,13,0,0,0,12.691,10h.229a13.064,13.064,0,0,0,13.05-13.049v-3.418h3.093a1.7,1.7,0,0,0,0-3.4h-1.3v-4.287a14.844,14.844,0,0,0-7.8-13.055v-3.024a1.7,1.7,0,0,0-3.4,0v1.7a14.827,14.827,0,0,0-3.626-.45h-.266a14.833,14.833,0,0,0-3.627.45v-1.7a1.7,1.7,0,1,0-3.4,0v3.024a14.843,14.843,0,0,0-7.8,13.055v4.287h-1.3a1.7,1.7,0,1,0,0,3.4Zm4.7-7.687a11.414,11.414,0,0,1,4.4-9v.666a1.7,1.7,0,0,0,3.4,0v-2.5a11.4,11.4,0,0,1,3.627-.593h.266a11.4,11.4,0,0,1,3.626.593v2.5a1.7,1.7,0,0,0,3.4,0v-.666a11.414,11.414,0,0,1,4.4,9v4.287H336.247Zm28.423,27.009H329.676a13.17,13.17,0,0,0-13.156,13.156v13.856a1.7,1.7,0,0,0,1.7,1.7h57.906a1.7,1.7,0,0,0,1.7-1.7V167.792A13.17,13.17,0,0,0,364.671,154.636Zm-2.3,25.312H331.98V166.016a1.7,1.7,0,0,0-3.4,0v13.932h-8.66V167.792a9.766,9.766,0,0,1,9.756-9.756h5.283V170.48a1.7,1.7,0,0,0,1.7,1.7h21.031a1.7,1.7,0,0,0,1.7-1.7v-8.091a1.7,1.7,0,0,0-3.4,0v6.391H338.358V158.036h24.009Zm12.059,0h-8.66V158.1a9.771,9.771,0,0,1,8.66,9.694Zm-16.737-5.972H336.658a1.7,1.7,0,0,0,0,3.4h21.031a1.7,1.7,0,0,0,0-3.4Z" transform="translate(-316.02 -109.348)" fill="#f6d100" stroke="#f6d100" stroke-width="1"/>
</svg>
