<svg xmlns="http://www.w3.org/2000/svg" width="72" height="74.202" viewBox="0 0 72 74.202">
  <path id="icon-peoples" d="M288.041,81.259a1.43,1.43,0,1,0,1.43,1.43A1.43,1.43,0,0,0,288.041,81.259Zm-53,1.43a1.43,1.43,0,1,0-1.43,1.43A1.43,1.43,0,0,0,235.045,82.689Zm60.524,22H283.292l-.075-35.139a1.429,1.429,0,0,0-1.43-1.427h0a1.429,1.429,0,0,0-1.427,1.433l.075,35.133h-4.153l-.037-15.634a1.429,1.429,0,0,0-1.43-1.426h0a1.429,1.429,0,0,0-1.426,1.433l.036,15.627h-3.472V85.768a7.844,7.844,0,0,0,7.23-7.722V64.188a15.524,15.524,0,0,0-1.361-6.358,11.838,11.838,0,0,1,7.475,3.29,11.086,11.086,0,0,1,3.441,8l.027,8.138a1.429,1.429,0,0,0,1.43,1.425h0a1.43,1.43,0,0,0,1.426-1.435l-.027-8.136a13.923,13.923,0,0,0-4.315-10.052,14.628,14.628,0,0,0-5.518-3.351,7.561,7.561,0,0,0-5.211-13.044h-.016a7.594,7.594,0,0,0-3.488.859,1.43,1.43,0,1,0,1.326,2.534,4.662,4.662,0,0,1,2.168-.533,4.706,4.706,0,1,1,.02,9.413,1.413,1.413,0,0,0-.181.013l-.228.011a16.272,16.272,0,0,0-8.27-5.919,8.389,8.389,0,1,0-10.79.219,16.251,16.251,0,0,0-7.619,5.692c-.227-.01-.453-.016-.678-.016-.107,0-.214,0-.32,0-.026,0-.052,0-.078,0a4.706,4.706,0,1,1,2.244-8.844A1.43,1.43,0,0,0,250,43.582a7.563,7.563,0,0,0-8.578,12.35,14.243,14.243,0,0,0-9.239,13.214v8.109a1.43,1.43,0,0,0,2.86,0V69.146a11.525,11.525,0,0,1,10.744-11.3,15.513,15.513,0,0,0-1.356,6.345V78.045a7.852,7.852,0,0,0,7.471,7.741v18.906h-3.9V89.06a1.43,1.43,0,0,0-2.86,0v15.631h-3.515V69.571a1.43,1.43,0,1,0-2.86,0v35.121H227.43a1.43,1.43,0,0,0,0,2.86h68.14a1.43,1.43,0,1,0,0-2.86ZM254.824,42.739a5.529,5.529,0,1,1,5.529,5.528A5.535,5.535,0,0,1,254.824,42.739Zm13.693,20.5a1.43,1.43,0,0,0-1.43,1.43v40.022h-5.093V84.8a1.43,1.43,0,1,0-2.859,0v19.895h-4.37V64.67a1.43,1.43,0,1,0-2.86,0V82.919a4.981,4.981,0,0,1-4.611-4.874V64.188a12.7,12.7,0,0,1,2.081-6.966,13.767,13.767,0,0,1,22.871.016,12.7,12.7,0,0,1,2.071,6.95V78.045a4.971,4.971,0,0,1-4.37,4.846V64.67A1.431,1.431,0,0,0,268.517,63.24Z" transform="translate(-225.5 -33.85)" fill="#f6d100" stroke="#f6d100" stroke-width="1"/>
</svg>
